<?xml version="1.0" encoding="utf-8"?>
<svg viewBox="0 0 500 500" xmlns="http://www.w3.org/2000/svg">
  <rect width="500" height="500" style="fill: rgb(255, 255, 255);"/>
  <g transform="matrix(0.818967, 0, 0, 0.991611, -580.813904, -363.159821)">
    <g>
      <g id="Layer_1">
        <g>
          <g transform="matrix(1, 0, 0, 1, 705.725647, 328.77533)">
            <path d="M 125.582 390.009 L 227.274 277.025 L 290.96 385.956 L 475.604 147.82 L 405.141 138.303 L 582.611 74.257 L 559.084 216.279 L 523.285 165.789 L 287.341 440.841 L 225.18 343.237 L 155.119 408.576 L 133.525 411.82"/>
          </g>
        </g>
      </g>
    </g>
  </g>
  <path d="M 80.904 252.661 L 105.944 252.661 C 105.604 259.928 103.641 266.348 100.054 271.921 C 96.467 277.488 91.437 281.801 84.964 284.861 C 78.484 287.921 71.084 289.451 62.764 289.451 C 49.037 289.451 38.227 284.981 30.334 276.041 C 22.447 267.101 18.504 254.478 18.504 238.171 L 18.504 233.001 C 18.504 222.768 20.284 213.814 23.844 206.141 C 27.411 198.468 32.541 192.538 39.234 188.351 C 45.927 184.171 53.674 182.081 62.474 182.081 C 75.147 182.081 85.334 185.414 93.034 192.081 C 100.727 198.754 105.101 207.948 106.154 219.661 L 81.054 219.661 C 80.861 213.301 79.257 208.734 76.244 205.961 C 73.231 203.188 68.641 201.801 62.474 201.801 C 56.207 201.801 51.617 204.144 48.704 208.831 C 45.784 213.518 44.254 221.001 44.114 231.281 L 44.114 238.671 C 44.114 249.811 45.511 257.774 48.304 262.561 C 51.104 267.341 55.924 269.731 62.764 269.731 C 68.544 269.731 72.967 268.368 76.034 265.641 C 79.094 262.914 80.717 258.588 80.904 252.661 ZM 175.085 288.021 L 156.655 251.151 L 143.025 251.151 L 143.025 288.021 L 117.845 288.021 L 117.845 183.581 L 158.945 183.581 C 171.331 183.581 181.015 186.331 187.995 191.831 C 194.975 197.331 198.465 205.101 198.465 215.141 C 198.465 222.414 196.995 228.441 194.055 233.221 C 191.115 238.001 186.511 241.874 180.245 244.841 L 202.055 286.941 L 202.055 288.021 L 175.085 288.021 Z M 143.025 203.021 L 143.025 231.711 L 158.945 231.711 C 163.725 231.711 167.325 230.458 169.745 227.951 C 172.158 225.438 173.365 221.934 173.365 217.441 C 173.365 212.948 172.145 209.421 169.705 206.861 C 167.265 204.301 163.678 203.021 158.945 203.021 L 143.025 203.021 ZM 302.111 233.151 L 302.111 237.951 C 302.111 248.138 300.221 257.154 296.441 265.001 C 292.668 272.841 287.301 278.878 280.341 283.111 C 273.388 287.338 265.461 289.451 256.561 289.451 C 247.668 289.451 239.778 287.408 232.891 283.321 C 226.005 279.234 220.638 273.388 216.791 265.781 C 212.945 258.181 210.925 249.454 210.731 239.601 L 210.731 233.721 C 210.731 223.488 212.608 214.461 216.361 206.641 C 220.115 198.828 225.495 192.791 232.501 188.531 C 239.508 184.278 247.481 182.151 256.421 182.151 C 265.268 182.151 273.158 184.254 280.091 188.461 C 287.025 192.668 292.418 198.658 296.271 206.431 C 300.118 214.198 302.065 223.104 302.111 233.151 Z M 276.501 238.381 L 276.501 233.581 C 276.501 223.201 274.768 215.321 271.301 209.941 C 267.835 204.561 262.875 201.871 256.421 201.871 C 243.795 201.871 237.125 211.341 236.411 230.281 L 236.341 237.951 C 236.341 248.184 238.038 256.051 241.431 261.551 C 244.825 267.051 249.868 269.801 256.561 269.801 C 262.921 269.801 267.825 267.101 271.271 261.701 C 274.711 256.294 276.455 248.521 276.501 238.381 ZM 368.963 260.261 C 368.963 256.581 367.659 253.711 365.053 251.651 C 362.446 249.598 357.866 247.471 351.313 245.271 C 344.766 243.071 339.413 240.944 335.253 238.891 C 321.719 232.244 314.953 223.111 314.953 211.491 C 314.953 205.704 316.636 200.598 320.003 196.171 C 323.376 191.751 328.146 188.308 334.313 185.841 C 340.486 183.381 347.419 182.151 355.113 182.151 C 362.626 182.151 369.359 183.491 375.313 186.171 C 381.266 188.844 385.893 192.658 389.193 197.611 C 392.486 202.558 394.133 208.211 394.133 214.571 L 369.033 214.571 C 369.033 210.318 367.729 207.018 365.123 204.671 C 362.516 202.331 358.989 201.161 354.543 201.161 C 350.049 201.161 346.499 202.151 343.893 204.131 C 341.286 206.118 339.983 208.641 339.983 211.701 C 339.983 214.381 341.416 216.808 344.283 218.981 C 347.156 221.154 352.203 223.401 359.423 225.721 C 366.643 228.041 372.573 230.541 377.213 233.221 C 388.493 239.721 394.133 248.688 394.133 260.121 C 394.133 269.254 390.693 276.428 383.813 281.641 C 376.926 286.848 367.479 289.451 355.473 289.451 C 347.013 289.451 339.349 287.934 332.483 284.901 C 325.623 281.868 320.459 277.708 316.993 272.421 C 313.526 267.134 311.793 261.048 311.793 254.161 L 337.043 254.161 C 337.043 259.761 338.489 263.888 341.383 266.541 C 344.276 269.194 348.973 270.521 355.473 270.521 C 359.633 270.521 362.923 269.624 365.343 267.831 C 367.756 266.038 368.963 263.514 368.963 260.261 ZM 460.916 260.261 C 460.916 256.581 459.613 253.711 457.006 251.651 C 454.399 249.598 449.819 247.471 443.266 245.271 C 436.719 243.071 431.366 240.944 427.206 238.891 C 413.673 232.244 406.906 223.111 406.906 211.491 C 406.906 205.704 408.589 200.598 411.956 196.171 C 415.329 191.751 420.099 188.308 426.266 185.841 C 432.439 183.381 439.373 182.151 447.066 182.151 C 454.579 182.151 461.313 183.491 467.266 186.171 C 473.219 188.844 477.846 192.658 481.146 197.611 C 484.439 202.558 486.086 208.211 486.086 214.571 L 460.986 214.571 C 460.986 210.318 459.683 207.018 457.076 204.671 C 454.469 202.331 450.943 201.161 446.496 201.161 C 442.003 201.161 438.453 202.151 435.846 204.131 C 433.239 206.118 431.936 208.641 431.936 211.701 C 431.936 214.381 433.369 216.808 436.236 218.981 C 439.109 221.154 444.156 223.401 451.376 225.721 C 458.596 228.041 464.526 230.541 469.166 233.221 C 480.446 239.721 486.086 248.688 486.086 260.121 C 486.086 269.254 482.646 276.428 475.766 281.641 C 468.879 286.848 459.433 289.451 447.426 289.451 C 438.966 289.451 431.303 287.934 424.436 284.901 C 417.576 281.868 412.413 277.708 408.946 272.421 C 405.479 267.134 403.746 261.048 403.746 254.161 L 428.996 254.161 C 428.996 259.761 430.443 263.888 433.336 266.541 C 436.229 269.194 440.926 270.521 447.426 270.521 C 451.586 270.521 454.876 269.624 457.296 267.831 C 459.709 266.038 460.916 263.514 460.916 260.261 Z" transform="matrix(1, 0, 0, 1, 0, 0)" style="fill: rgb(163, 100, 151); white-space: pre;"/>
  <path d="M 99.327 438.109 C 99.327 432.816 97.454 428.692 93.707 425.739 C 89.96 422.786 83.38 419.729 73.967 416.569 C 64.554 413.409 56.857 410.349 50.877 407.389 C 31.43 397.842 21.707 384.719 21.707 368.019 C 21.707 359.706 24.13 352.369 28.977 346.009 C 33.824 339.656 40.677 334.709 49.537 331.169 C 58.404 327.629 68.367 325.859 79.427 325.859 C 90.22 325.859 99.894 327.782 108.447 331.629 C 117 335.476 123.65 340.956 128.397 348.069 C 133.137 355.182 135.507 363.309 135.507 372.449 L 99.427 372.449 C 99.427 366.336 97.554 361.596 93.807 358.229 C 90.067 354.856 85 353.169 78.607 353.169 C 72.147 353.169 67.044 354.596 63.297 357.449 C 59.557 360.302 57.687 363.929 57.687 368.329 C 57.687 372.176 59.747 375.662 63.867 378.789 C 67.987 381.916 75.237 385.146 85.617 388.479 C 95.99 391.812 104.51 395.402 111.177 399.249 C 127.397 408.596 135.507 421.479 135.507 437.899 C 135.507 451.026 130.56 461.336 120.667 468.829 C 110.767 476.316 97.194 480.059 79.947 480.059 C 67.787 480.059 56.774 477.879 46.907 473.519 C 37.047 469.152 29.627 463.172 24.647 455.579 C 19.667 447.986 17.177 439.242 17.177 429.349 L 53.457 429.349 C 53.457 437.389 55.537 443.316 59.697 447.129 C 63.85 450.942 70.6 452.849 79.947 452.849 C 85.927 452.849 90.65 451.559 94.117 448.979 C 97.59 446.406 99.327 442.782 99.327 438.109 ZM 247.14 387.499 L 247.14 414.399 L 190.24 414.399 L 190.24 450.169 L 257.44 450.169 L 257.44 477.999 L 154.06 477.999 L 154.06 327.919 L 257.65 327.919 L 257.65 355.849 L 190.24 355.849 L 190.24 387.499 L 247.14 387.499 ZM 308.364 327.919 L 308.364 450.169 L 371.344 450.169 L 371.344 477.999 L 272.184 477.999 L 272.184 327.919 L 308.364 327.919 ZM 422.777 327.919 L 422.777 450.169 L 485.757 450.169 L 485.757 477.999 L 386.597 477.999 L 386.597 327.919 L 422.777 327.919 Z" transform="matrix(1, 0, 0, 1, 0, 0)" style="fill: rgb(163, 100, 151); white-space: pre;"/>
</svg>